<?xml version="1.0" standalone="no"?>
<!DOCTYPE svg PUBLIC "-//W3C//DTD SVG 20010904//EN"
 "http://www.w3.org/TR/2001/REC-SVG-20010904/DTD/svg10.dtd">
<svg version="1.0" xmlns="http://www.w3.org/2000/svg"
 width="260.000000pt" height="260.000000pt" viewBox="0 0 260.000000 260.000000"
 preserveAspectRatio="xMidYMid meet">
<metadata>
Created by potrace 1.11, written by Peter Selinger 2001-2013
</metadata>
<g transform="translate(0.000000,260.000000) scale(0.100000,-0.100000)"
fill="#000000" stroke="none">
<path d="M1235 2469 c-123 -193 -154 -244 -149 -248 5 -6 435 -4 440 2 3 2
-13 31 -34 63 -36 56 -54 84 -148 231 l-40 62 -69 -110z"/>
<path d="M400 2197 c0 -7 81 -373 86 -391 5 -15 36 11 165 140 102 102 154
161 146 165 -6 4 -37 12 -67 18 -80 16 -84 17 -209 45 -123 28 -121 28 -121
23z"/>
<path d="M2130 2184 c-30 -7 -68 -16 -85 -19 -16 -3 -58 -12 -93 -20 -34 -8
-76 -17 -94 -20 -65 -12 -64 -15 101 -179 l159 -159 11 39 c10 40 26 111 35
154 2 14 14 67 25 117 12 51 21 95 21 98 0 7 -18 5 -80 -11z"/>
<path d="M1199 2106 c-2 -2 -23 -6 -46 -9 -145 -20 -331 -123 -444 -244 -140
-153 -214 -336 -218 -544 -9 -454 352 -824 809 -829 100 -1 176 11 273 45 269
93 475 330 532 611 19 98 15 272 -9 364 -81 302 -331 537 -633 595 -70 13
-253 21 -264 11z m-39 -386 c64 -36 93 -83 86 -138 -7 -52 -31 -87 -70 -104
l-30 -12 31 -13 c76 -31 110 -133 70 -212 -16 -32 -34 -48 -77 -69 -54 -26
-60 -27 -262 -30 l-208 -4 0 307 0 307 208 -4 c199 -3 209 -4 252 -28z m350
-410 l0 -120 95 0 95 0 0 120 0 120 100 0 100 0 0 -305 0 -305 -100 0 -100 0
0 109 0 108 -95 0 -95 0 0 -109 0 -108 -100 0 -100 0 0 305 0 305 100 0 100 0
0 -120z"/>
<path d="M918 1602 c-14 -3 -18 -14 -18 -48 l0 -44 61 3 c46 3 65 8 75 22 8
10 14 22 14 26 0 13 -31 39 -48 40 -9 0 -28 1 -42 2 -14 2 -33 1 -42 -1z"/>
<path d="M902 1333 l3 -47 57 1 c66 2 98 16 98 43 0 36 -27 50 -96 50 l-65 0
3 -47z"/>
<path d="M211 1416 c-89 -57 -167 -108 -173 -114 -7 -7 19 -28 82 -68 50 -33
127 -83 172 -112 44 -29 83 -51 85 -48 6 6 6 436 1 441 -2 2 -77 -42 -167 -99z"/>
<path d="M2229 1493 c-2 -90 0 -416 3 -419 2 -2 73 42 158 97 85 55 163 102
173 106 10 3 16 10 14 16 -3 9 -166 118 -309 206 l-38 23 -1 -29z"/>
<path d="M486 789 c-3 -7 -10 -39 -16 -69 -5 -30 -12 -64 -14 -75 -2 -11 -16
-71 -31 -134 -14 -62 -24 -115 -22 -117 4 -5 364 73 390 84 14 6 -12 36 -142
166 -106 106 -162 155 -165 145z"/>
<path d="M1955 640 l-158 -158 40 -11 c22 -6 62 -15 89 -21 27 -5 58 -11 69
-14 21 -5 154 -35 194 -44 21 -4 23 -2 17 24 -4 16 -8 38 -11 49 -2 11 -13 63
-25 115 -12 52 -27 121 -33 152 -7 31 -15 59 -18 62 -3 3 -76 -66 -164 -154z"/>
<path d="M1228 370 l-148 -5 108 -170 c60 -94 113 -169 118 -168 11 2 226 335
220 340 -7 7 -144 8 -298 3z"/>
</g>
</svg>
